<svg width="38" height="36" xmlns="http://www.w3.org/2000/svg">
 <title>Shape</title>

 <g>
  <title>background</title>
  <rect fill="none" id="canvas_background" height="602" width="802" y="-1" x="-1"/>
 </g>
 <g>
  <title>Layer 1</title>
  <path fill="white" id="svg_1" fill-rule="evenodd" d="m0.107,35.588l37.348,0l0,-35.588l-37.348,0l0,35.588zm3.193,-27.503c0,-2.625 2.12,-4.75 4.758,-4.75l21.47,0a4.75,4.75 0 0 1 4.756,4.75l0,12.905l-2.884,0l-1.784,-4.852a0.753,0.753 0 0 0 -1.415,0.01c-0.106,0.297 -0.504,1.43 -0.997,2.836c-0.76,-3.174 -2.358,-9.875 -2.358,-9.875a0.748,0.748 0 0 0 -0.776,-0.577c-0.368,0.018 -0.666,0.3 -0.707,0.663s-1.223,10.92 -1.577,14.044c-0.64,-0.96 -1.274,-1.92 -1.274,-1.92a0.755,0.755 0 0 0 -0.627,-0.33l-2.9,0a2775.45,2775.45 0 0 0 -1.777,-4.853a0.76,0.76 0 0 0 -0.715,-0.49a0.74,0.74 0 0 0 -0.7,0.5l-1.006,2.836c-0.758,-3.17 -2.357,-9.875 -2.357,-9.875a0.753,0.753 0 0 0 -1.48,0.09c0,-0.002 -1.222,10.916 -1.578,14.04l-1.275,-1.917a0.75,0.75 0 0 0 -0.624,-0.33l-2.173,0l0,-12.906l0,0.001zm26.227,24.537l-21.47,0a4.75,4.75 0 0 1 -4.758,-4.76l0,-5.37l1.76,0c0.37,0.553 2.195,3.3 2.195,3.3a0.755,0.755 0 0 0 1.376,-0.333c0.037,-0.315 0.81,-7.206 1.33,-11.815c0.87,3.66 1.95,8.167 1.95,8.167c0.074,0.325 0.356,0.56 0.69,0.577c0.337,0.02 0.64,-0.187 0.75,-0.5c0,0 0.61,-1.737 1.156,-3.27c0.578,1.57 1.25,3.38 1.25,3.38a0.74,0.74 0 0 0 0.7,0.493l3.02,0c0.37,0.552 2.196,3.3 2.196,3.3a0.75,0.75 0 0 0 0.8,0.313c0.31,-0.072 0.538,-0.332 0.572,-0.647s0.812,-7.206 1.334,-11.818c0.87,3.664 1.946,8.17 1.946,8.17c0.075,0.325 0.357,0.56 0.69,0.577c0.337,0.02 0.64,-0.187 0.748,-0.5c0,0 0.617,-1.737 1.158,-3.27c0.575,1.57 1.243,3.38 1.243,3.38a0.747,0.747 0 0 0 0.702,0.493l3.41,0l0,5.37a4.752,4.752 0 0 1 -4.75,4.758l0.002,0.005z"/>
 </g>
</svg>